<svg id="visual" viewBox="0 0 900 600" width="900" height="600" xmlns="http://www.w3.org/2000/svg" xmlns:xlink="http://www.w3.org/1999/xlink" version="1.1"><path d="M0 79L13.7 81C27.3 83 54.7 87 82 104C109.3 121 136.7 151 163.8 153C191 155 218 129 245.2 115C272.3 101 299.7 99 327 108C354.3 117 381.7 137 409 140C436.3 143 463.7 129 491 142C518.3 155 545.7 195 573 214C600.3 233 627.7 231 654.8 219C682 207 709 185 736.2 183C763.3 181 790.7 199 818 187C845.3 175 872.7 133 886.3 112L900 91L900 0L886.3 0C872.7 0 845.3 0 818 0C790.7 0 763.3 0 736.2 0C709 0 682 0 654.8 0C627.7 0 600.3 0 573 0C545.7 0 518.3 0 491 0C463.7 0 436.3 0 409 0C381.7 0 354.3 0 327 0C299.7 0 272.3 0 245.2 0C218 0 191 0 163.8 0C136.7 0 109.3 0 82 0C54.7 0 27.3 0 13.7 0L0 0Z" fill="#6198ff"></path><path d="M0 181L13.7 181C27.3 181 54.7 181 82 193C109.3 205 136.7 229 163.8 229C191 229 218 205 245.2 186C272.3 167 299.7 153 327 163C354.3 173 381.7 207 409 218C436.3 229 463.7 217 491 228C518.3 239 545.7 273 573 287C600.3 301 627.7 295 654.8 288C682 281 709 273 736.2 272C763.3 271 790.7 277 818 262C845.3 247 872.7 211 886.3 193L900 175L900 89L886.3 110C872.7 131 845.3 173 818 185C790.7 197 763.3 179 736.2 181C709 183 682 205 654.8 217C627.7 229 600.3 231 573 212C545.7 193 518.3 153 491 140C463.7 127 436.3 141 409 138C381.7 135 354.3 115 327 106C299.7 97 272.3 99 245.2 113C218 127 191 153 163.8 151C136.7 149 109.3 119 82 102C54.7 85 27.3 81 13.7 79L0 77Z" fill="#3c80ff"></path><path d="M0 295L13.7 284C27.3 273 54.7 251 82 251C109.3 251 136.7 273 163.8 285C191 297 218 299 245.2 291C272.3 283 299.7 265 327 272C354.3 279 381.7 311 409 312C436.3 313 463.7 283 491 284C518.3 285 545.7 317 573 343C600.3 369 627.7 389 654.8 384C682 379 709 349 736.2 340C763.3 331 790.7 343 818 327C845.3 311 872.7 267 886.3 245L900 223L900 173L886.3 191C872.7 209 845.3 245 818 260C790.7 275 763.3 269 736.2 270C709 271 682 279 654.8 286C627.7 293 600.3 299 573 285C545.7 271 518.3 237 491 226C463.7 215 436.3 227 409 216C381.7 205 354.3 171 327 161C299.7 151 272.3 165 245.2 184C218 203 191 227 163.8 227C136.7 227 109.3 203 82 191C54.7 179 27.3 179 13.7 179L0 179Z" fill="#0066ff"></path><path d="M0 433L13.7 423C27.3 413 54.7 393 82 398C109.3 403 136.7 433 163.8 435C191 437 218 411 245.2 395C272.3 379 299.7 373 327 383C354.3 393 381.7 419 409 421C436.3 423 463.7 401 491 398C518.3 395 545.7 411 573 428C600.3 445 627.7 463 654.8 463C682 463 709 445 736.2 443C763.3 441 790.7 455 818 440C845.3 425 872.7 381 886.3 359L900 337L900 221L886.3 243C872.7 265 845.3 309 818 325C790.7 341 763.3 329 736.2 338C709 347 682 377 654.8 382C627.7 387 600.3 367 573 341C545.7 315 518.3 283 491 282C463.7 281 436.3 311 409 310C381.7 309 354.3 277 327 270C299.7 263 272.3 281 245.2 289C218 297 191 295 163.8 283C136.7 271 109.3 249 82 249C54.7 249 27.3 271 13.7 282L0 293Z" fill="#0059dd"></path><path d="M0 601L13.7 601C27.3 601 54.7 601 82 601C109.3 601 136.7 601 163.8 601C191 601 218 601 245.2 601C272.3 601 299.7 601 327 601C354.3 601 381.7 601 409 601C436.3 601 463.7 601 491 601C518.3 601 545.7 601 573 601C600.3 601 627.7 601 654.8 601C682 601 709 601 736.2 601C763.3 601 790.7 601 818 601C845.3 601 872.7 601 886.3 601L900 601L900 335L886.3 357C872.7 379 845.3 423 818 438C790.7 453 763.3 439 736.2 441C709 443 682 461 654.8 461C627.7 461 600.3 443 573 426C545.7 409 518.3 393 491 396C463.7 399 436.3 421 409 419C381.7 417 354.3 391 327 381C299.7 371 272.3 377 245.2 393C218 409 191 435 163.8 433C136.7 431 109.3 401 82 396C54.7 391 27.3 411 13.7 421L0 431Z" fill="#004cbb"></path></svg>